<?xml version="1.0" encoding="iso-8859-1"?>
<!-- Generator: Adobe Illustrator 16.0.0, SVG Export Plug-In . SVG Version: 6.00 Build 0)  -->
<!DOCTYPE svg PUBLIC "-//W3C//DTD SVG 1.1//EN" "http://www.w3.org/Graphics/SVG/1.1/DTD/svg11.dtd">
<svg version="1.1" id="Capa_1" xmlns="http://www.w3.org/2000/svg" xmlns:xlink="http://www.w3.org/1999/xlink" x="0px" y="0px"
	 width="54.043px" height="54.043px" viewBox="0 0 54.043 54.043" style="enable-background:new 0 0 54.043 54.043;"
	 xml:space="preserve">
<g>
	<g>
		<path d="M22.67,24.936c0,0-6.415,1.982-7.128,4.212c-0.635,1.987-1.292,5.686-1.189,8.53c0.02,0.562,0.52,1.113,1.073,1.219
			c1.867,0.355,6.111,1.043,10.685,0.974c4.26-0.064,7.265-0.787,8.703-1.221c0.539-0.164,0.964-0.785,0.952-1.347
			c-0.051-2.4-0.317-8.275-1.691-9.208c-1.737-1.178-3.349-2.574-3.627-3.47c0,0,1.241,0.839,1.769-1.362
			c0.526-2.199,1.189-5.758,1.005-7.555c0,0-1.123,0.419-2.952-0.233c-1.829-0.65-2.068-0.673-2.576-0.268
			c-0.727,0.581-0.496,1.642-0.496,1.642s0.278,1.673-1.425,1.302c0,0-1.103-0.723-1.611,0.403
			c-0.447,0.992,0.271,1.395,0.271,1.395v2.569c0,0-0.738-0.325-1.156,0.558C22.855,23.958,22.67,24.284,22.67,24.936z"/>
		<path d="M23.526,17.709c0.316-0.36,0.736-0.566,1.217-0.566c0.435,0,0.804,0.159,1.006,0.266c0.194,0.03,0.343,0.009,0.367-0.02
			c0.069-0.079,0.082-0.342,0.063-0.454c-0.114-0.525-0.093-1.66,0.766-2.346c0.016-0.014,0.037-0.022,0.057-0.035
			c-1.001-0.747-1.606-1.667-1.936-2.357C23.091,13.841,23.238,16.332,23.526,17.709z"/>
		<path d="M27.805,14.211c0.09-0.016,0.158-0.053,0.26-0.053c0.485,0,1.061,0.186,2.171,0.582c0.599,0.214,1.176,0.321,1.712,0.321
			c0.472,0,0.738-0.087,0.74-0.089l0.633-0.213c0.268-1.075,0.096-2.849-3.312-3.942c-2.355-0.759-3.828,0.33-4.364,0.844
			C25.941,12.34,26.578,13.444,27.805,14.211z"/>
		<path d="M34.896,51.879c1.768-0.61,3.478-1.417,5.083-2.397l-2.536-4.157c-1.308,0.797-2.701,1.454-4.138,1.951L34.896,51.879z"/>
		<path d="M26.297,53.317c1.617,0,3.232-0.147,4.799-0.438l-0.886-4.79c-1.276,0.237-2.592,0.357-3.913,0.357
			c-11.814,0-21.426-9.611-21.426-21.426c0-11.815,9.611-21.426,21.426-21.426c7.327,0,14.151,3.818,18.056,9.904l-4.403,1.154
			L50.195,27.01l3.848-14.053l-4.783,1.254C44.646,5.969,35.815,0.726,26.297,0.726C11.797,0.726,0,12.522,0,27.022
			C0.001,41.522,11.797,53.317,26.297,53.317z"/>
	</g>
</g>
<g>
</g>
<g>
</g>
<g>
</g>
<g>
</g>
<g>
</g>
<g>
</g>
<g>
</g>
<g>
</g>
<g>
</g>
<g>
</g>
<g>
</g>
<g>
</g>
<g>
</g>
<g>
</g>
<g>
</g>
</svg>
