<?xml version="1.0" encoding="utf-8"?>
<!DOCTYPE svg PUBLIC "-//W3C//DTD SVG 1.1//EN" "http://www.w3.org/Graphics/SVG/1.1/DTD/svg11.dtd">
<svg version="1.1" xmlns="http://www.w3.org/2000/svg" xmlns:xlink="http://www.w3.org/1999/xlink" x="0px" y="0px" viewBox="0 0 1000 1000" enable-background="new 0 0 1000 1000" xml:space="preserve">
<g><path d="M10,500c0,119.8,49,228.7,130.7,304.9L10,935.6h326.7V608.9L216.9,728.7c-59.9-54.4-98-136.1-98-228.7c0-141.6,92.6-261.3,217.8-310.3V80.8C151.6,129.8,10,298.6,10,500L10,500z M445.6,772.2h108.9V663.3H445.6V772.2L445.6,772.2z M990,64.4H663.3v326.7l119.8-119.8c59.9,54.4,98,136.1,98,228.7c0,141.6-92.6,261.3-217.8,310.3v114.3C848.4,875.7,990,706.9,990,505.4c0-119.8-49-228.7-130.7-304.9L990,64.4L990,64.4z M445.6,554.4h108.9V227.8H445.6V554.4L445.6,554.4z"/></g>
</svg>