<?xml version="1.0" encoding="utf-8"?>
<svg version="1.1" x="0px" y="0px" viewBox="0 0 1000 1000" enable-background="new 0 0 1000 1000" xmlns="http://www.w3.org/2000/svg">
  <g>
    <path d="M 10 500 C 10 619.8 59 728.7 140.7 804.9 L 10 935.6 L 336.7 935.6 L 336.7 608.9 L 216.9 728.7 C 157 674.3 118.9 592.6 118.9 500 C 118.9 358.4 211.5 238.7 336.7 189.7 L 336.7 80.8 C 151.6 129.8 10 298.6 10 500 Z M 990 64.4 L 663.3 64.4 L 663.3 391.1 L 783.1 271.3 C 843 325.7 881.1 407.4 881.1 500 C 881.1 641.6 788.5 761.3 663.3 810.3 L 663.3 924.6 C 848.4 875.7 990 706.9 990 505.4 C 990 385.6 941 276.7 859.3 200.5 L 990 64.4 Z"/>
  </g>
</svg>